<?xml version="1.0" standalone="no"?>
<!DOCTYPE svg PUBLIC "-//W3C//DTD SVG 20010904//EN"
 "http://www.w3.org/TR/2001/REC-SVG-20010904/DTD/svg10.dtd">
<svg version="1.0" xmlns="http://www.w3.org/2000/svg"
 width="512.000000pt" height="512.000000pt" viewBox="0 0 512.000000 512.000000"
 preserveAspectRatio="xMidYMid meet">
<metadata>
Created by potrace 1.14, written by Peter Selinger 2001-2017
</metadata>
<g transform="translate(0.000000,512.000000) scale(0.100000,-0.100000)"
fill="#000000" stroke="none">
<path d="M2280 4203 c-516 -71 -926 -331 -1186 -753 -46 -74 -114 -213 -114
-233 0 -7 -4 -17 -9 -22 -5 -6 -19 -42 -31 -82 -22 -71 -23 -72 -64 -78 -22
-4 -77 -19 -121 -32 -362 -114 -636 -408 -726 -780 -27 -111 -33 -293 -13
-416 65 -407 375 -750 774 -858 138 -37 158 -38 1705 -38 836 0 1528 4 1550 8
22 5 58 11 80 14 64 8 213 55 295 94 173 82 361 238 470 391 103 143 177 321
216 517 3 17 7 91 9 166 2 121 -6 207 -30 309 -3 14 -8 35 -11 48 -19 93 -119
295 -197 397 -135 178 -341 334 -542 408 -150 55 -255 75 -434 80 l-53 2 -33
59 c-84 152 -245 344 -380 452 -214 173 -451 280 -730 331 -82 15 -357 25
-425 16z m400 -317 c41 -10 85 -19 97 -22 43 -9 169 -57 234 -90 286 -143 505
-389 635 -713 l17 -42 51 7 c276 39 486 -1 686 -130 371 -241 518 -721 345
-1126 -112 -261 -329 -448 -620 -534 -69 -20 -87 -20 -1600 -23 -1641 -3
-1576 -4 -1721 47 -177 62 -351 222 -431 396 -95 208 -92 467 7 664 82 163
202 280 365 356 124 57 170 67 375 78 l44 2 18 84 c9 47 19 95 22 107 28 134
139 358 240 482 43 54 183 189 236 228 161 120 395 217 580 238 30 4 56 8 58
10 11 10 298 -5 362 -19z"/>
<path d="M1805 2610 c-121 -42 -221 -138 -264 -256 -27 -72 -32 -97 -32 -180
1 -210 150 -404 346 -449 105 -25 250 8 339 76 53 41 100 105 92 125 -3 8 -14
18 -24 22 -9 4 -44 22 -77 41 -56 33 -59 34 -69 16 -50 -90 -175 -127 -267
-79 -166 85 -170 402 -7 494 83 47 212 19 259 -56 12 -20 27 -33 33 -31 23 9
146 99 146 106 0 5 -13 26 -29 49 -36 49 -105 98 -174 122 -68 24 -203 24
-272 0z"/>
<path d="M2642 2608 c-146 -51 -254 -177 -287 -333 -70 -338 230 -640 538
-539 110 36 202 115 258 220 131 248 5 572 -258 658 -66 22 -180 19 -251 -6z
m237 -196 c29 -18 54 -45 75 -82 29 -51 31 -62 31 -151 0 -86 -3 -101 -30
-154 -43 -85 -95 -119 -178 -119 -73 1 -113 19 -156 71 -92 112 -85 309 14
409 69 68 159 78 244 26z"/>
<path d="M3361 2019 c-18 -6 -51 -22 -73 -36 l-39 -26 42 -43 c38 -39 45 -42
59 -29 28 26 76 38 99 25 46 -24 16 -82 -62 -121 -97 -50 -124 -86 -132 -184
l-5 -55 184 1 183 1 -1 57 -2 56 -87 0 c-48 -1 -87 3 -87 6 0 8 32 34 97 79
23 16 50 41 59 55 21 32 21 112 0 152 -31 60 -140 89 -235 62z"/>
</g>
</svg>
